<svg xmlns="http://www.w3.org/2000/svg" xmlns:xlink="http://www.w3.org/1999/xlink" style="width:15px;" viewBox="0 0 24 24" fill="#5B5B5B">
  <path d="M12 1C8.686 1 6 3.686 6 7C6 11.286 12 18 12 18C12 18 18 11.286 18 7C18 3.686 15.314 1 12 1 z M 12 4.8574219C13.184 4.8574219 14.142578 5.816 14.142578 7C14.142578 8.183 13.183 9.1425781 12 9.1425781C10.817 9.1425781 9.8574219 8.184 9.8574219 7C9.8574219 5.816 10.816 4.8574219 12 4.8574219 z M 4.8007812 15L2 22L22 22L19.199219 15L16.8125 15C16.3275 15.731 15.840578 16.408 15.392578 17L17.847656 17L19.046875 20L4.953125 20L6.1523438 17L8.6074219 17C8.1594219 16.408 7.6725 15.731 7.1875 15L4.8007812 15 z" fill="#5B5B5B" />
</svg>