<svg xmlns="http://www.w3.org/2000/svg" style="width:15px;" xmlns:xlink="http://www.w3.org/1999/xlink" viewBox="0 0 24 24" fill="#5B5B5B">
  <path d="M11.800781 2L2 5.1191406L2 17.90625L2 17.966797L12 22L22 17.966797L22 17.509766L22 5.1191406L12.185547 2L11.800781 2 z M 11 4.3535156L11 14.011719L4 16.732422L4 6.5820312L11 4.3535156 z M 13 4.3574219L20 6.5820312L20 16.732422L18 15.955078L18 8.6230469L15 7.6738281L15 14.789062L13 14.011719L13 4.3574219 z M 9 7.6738281L6 8.6230469L6 13.011719L9 11.830078L9 7.6738281 z M 12 15.769531L17.144531 17.769531L12 19.84375L6.8554688 17.767578L12 15.769531 z" fill="#5B5B5B" />
</svg>