<svg xmlns="http://www.w3.org/2000/svg" viewBox="0 0 100 100" style="width: 20px; height: 20px;"><circle cx="50" cy="50" r="35" fill="#fefdef"/><circle cx="50" cy="50" r="30" fill="#f15b6c"/><path fill="#1f212b" d="M50,86c-19.851,0-36-16.149-36-36s16.149-36,36-36s36,16.149,36,36S69.851,86,50,86z M50,16c-18.748,0-34,15.252-34,34s15.252,34,34,34s34-15.252,34-34S68.748,16,50,16z"/><path fill="#1f212b" d="M65.5,24.227c-0.086,0-0.174-0.022-0.254-0.069c-0.642-0.379-1.303-0.738-1.967-1.066c-0.248-0.123-0.349-0.422-0.227-0.67c0.123-0.247,0.421-0.349,0.67-0.227c0.686,0.339,1.37,0.71,2.033,1.102c0.238,0.141,0.316,0.447,0.176,0.685C65.837,24.139,65.67,24.227,65.5,24.227z"/><path fill="#1f212b" d="M68.5,26.249c-0.106,0-0.212-0.034-0.303-0.103c-0.323-0.247-0.651-0.487-0.983-0.719c-0.226-0.159-0.281-0.471-0.123-0.697c0.159-0.226,0.47-0.281,0.697-0.123c0.343,0.241,0.683,0.489,1.017,0.745c0.219,0.167,0.261,0.481,0.093,0.701C68.799,26.182,68.65,26.249,68.5,26.249z"/><path fill="#1f212b" d="M50,81c-17.093,0-31-13.907-31-31s13.907-31,31-31c3.667,0,7.257,0.635,10.672,1.887c0.259,0.095,0.393,0.382,0.297,0.641c-0.095,0.26-0.381,0.394-0.641,0.297C57.024,20.614,53.549,20,50,20c-16.542,0-30,13.458-30,30s13.458,30,30,30s30-13.458,30-30c0-8.439-3.585-16.536-9.836-22.213c-0.205-0.186-0.22-0.502-0.034-0.706c0.186-0.206,0.503-0.219,0.706-0.034C77.295,32.913,81,41.279,81,50C81,67.093,67.093,81,50,81z"/><path fill="#f9e65c" d="M51.5,46.5h10l-14,25v-17h-9l13-26V46.5z"/><path fill="#1f212b" d="M47.5,72c-0.042,0-0.084-0.005-0.126-0.017C47.153,71.927,47,71.728,47,71.5V55h-8.5c-0.173,0-0.334-0.09-0.426-0.237c-0.091-0.147-0.099-0.331-0.021-0.486l13-26c0.103-0.207,0.333-0.322,0.563-0.263C51.841,28.066,52,28.269,52,28.5V46h9.5c0.178,0,0.342,0.094,0.432,0.247s0.092,0.343,0.005,0.497l-14,25C47.847,71.905,47.678,72,47.5,72z M39.309,54H47.5c0.276,0,0.5,0.224,0.5,0.5v15.084L60.646,47H51.5c-0.276,0-0.5-0.224-0.5-0.5V30.618L39.309,54z"/></svg>