<svg xmlns="http://www.w3.org/2000/svg" width="15px" xmlns:xlink="http://www.w3.org/1999/xlink" viewBox="0 0 64 64"><linearGradient id="lxHOgdFBwcpnOmkmJ4Ge5a" x1="32" x2="32" y1="4.833" y2="59.543" gradientUnits="userSpaceOnUse" spreadMethod="reflect"><stop offset="0" stop-color="#1a6dff"/><stop offset="1" stop-color="#c822ff"/></linearGradient><path fill="url(#lxHOgdFBwcpnOmkmJ4Ge5a)" d="M31.613,58c-0.016,0-0.032,0-0.048,0c-0.934-0.016-1.782-0.474-2.329-1.256L18.371,41.197 c-0.44-0.63-0.493-1.446-0.137-2.131C18.577,38.408,19.241,38,19.968,38H26V9c0-1.654,1.346-3,2.999-3h6C36.654,6,38,7.346,38,9v29 h6.031c0.741,0,1.411,0.42,1.749,1.095c0.353,0.703,0.279,1.529-0.189,2.156L33.93,56.824C33.369,57.573,32.526,58,31.613,58z M19.968,40l10.906,15.598c0.24,0.344,0.556,0.399,0.723,0.402c0.169,0.005,0.482-0.042,0.732-0.375l11.659-15.573L36,40V9 c0-0.552-0.449-1-1.001-1h-6C28.449,8,28,8.448,28,9v31H19.968z"/><linearGradient id="lxHOgdFBwcpnOmkmJ4Ge5b" x1="32" x2="32" y1="9.333" y2="53.054" gradientUnits="userSpaceOnUse" spreadMethod="reflect"><stop offset="0" stop-color="#6dc7ff"/><stop offset="1" stop-color="#e6abff"/></linearGradient><path fill="url(#lxHOgdFBwcpnOmkmJ4Ge5b)" d="M32.608,51.578l6.279-8.659C39.156,42.546,38.913,42,38.478,42H34V11c0-0.552-0.448-1-1-1h-2 c-0.552,0-1,0.448-1,1v31h-4.479c-0.427,0-0.673,0.529-0.419,0.903l5.853,8.648C31.347,52.131,32.197,52.145,32.608,51.578z"/></svg>